<svg xmlns="http://www.w3.org/2000/svg" viewBox="0 0 512 512" role="img" aria-label="MC-ELMA Rope icon">
  <defs>
    <linearGradient id="sky" x1="0" y1="0" x2="1" y2="1">
      <stop offset="0" stop-color="#15324a"/>
      <stop offset="1" stop-color="#2f6b58"/>
    </linearGradient>
    <linearGradient id="apple" x1="0" y1="0" x2="1" y2="1">
      <stop offset="0" stop-color="#ff5a4f"/>
      <stop offset="1" stop-color="#b51f2d"/>
    </linearGradient>
  </defs>
  <rect width="512" height="512" rx="96" fill="url(#sky)"/>
  <path d="M154 305c0-77 44-133 103-133 24 0 38 12 55 12s31-12 55-12c59 0 103 56 103 133 0 93-69 151-111 151-23 0-31-10-47-10s-24 10-47 10c-42 0-111-58-111-151z" fill="url(#apple)"/>
  <path d="M278 161c5-48 38-82 89-91 7 51-35 91-89 91z" fill="#71c579"/>
  <path d="M269 174c-3-47 13-83 48-111" fill="none" stroke="#5b321e" stroke-width="18" stroke-linecap="round"/>
  <path d="M81 276c59-95 164-116 265-65 73 37 101 96 58 134-35 31-99 18-126-26-22-36-7-84 38-103" fill="none" stroke="#d7b477" stroke-width="26" stroke-linecap="round"/>
  <path d="M81 276c59-95 164-116 265-65 73 37 101 96 58 134-35 31-99 18-126-26-22-36-7-84 38-103" fill="none" stroke="#7a4f2b" stroke-width="10" stroke-linecap="round" stroke-dasharray="28 24"/>
  <circle cx="80" cy="276" r="24" fill="#d7b477" stroke="#7a4f2b" stroke-width="10"/>
</svg>
